<svg width="190" height="58" viewBox="0 0 190 58" fill="none" xmlns="http://www.w3.org/2000/svg">
  <rect width="58" height="58" rx="18" fill="#201910"/>
  <path d="M18 17H40L29.6 41H22.6L30.1 23.6H18V17Z" fill="#F6E9DA"/>
  <path d="M73 21H80.7L86.6 37L92.4 21H99.8L88.8 49H84L73 21Z" fill="#201910"/>
  <path d="M103 21H110V49H103V21Z" fill="#201910"/>
  <path d="M116 21H129.8C135.7 21 139.8 24.3 139.8 29.9C139.8 35.6 135.7 38.9 129.8 38.9H123.2V49H116V21ZM129.1 33.2C131.8 33.2 133.1 31.9 133.1 29.9C133.1 27.9 131.8 26.6 129.1 26.6H123.2V33.2H129.1Z" fill="#201910"/>
  <path d="M144.2 21H151.2V43.2H164.9V49H144.2V21Z" fill="#201910"/>
  <path d="M168.6 21H176V49H168.6V21Z" fill="#201910"/>
</svg>
